# xmcd
#
# Track frame offsets: 
#        150
#        25390
#        50760
#        75557
#        100171
#        120915
#        148605
#        177286
#        202605
#        230654
#
# Disc length: 3420 seconds
#
# Revision: 0
# Processed by: cddbd v1.5.2PL0 Copyright (c) Steve Scherf et al.
# Submitted via: ExactAudioCopy v1.0b3
#
DISCID=7b0d5a0a
DTITLE=Manh Quynh - Thuong Hoai Ngan Nam
DYEAR=1996
DGENRE=
TTITLE0=Thuong hoai ngan nam
TTITLE1=Ngoai o den vang
TTITLE2=Chuyen ba nguoi
TTITLE3=Lan dau cung la lan cuoi
TTITLE4=Bai tango cho em
TTITLE5=Ky niem nao buon
TTITLE6=Chuyen do khong em
TTITLE7=Nhat ky hai dua minh
TTITLE8=Can nha di vang
TTITLE9=Biet den bao gio (Doi la van ngay sau)
EXTD=
EXTT0=
EXTT1=
EXTT2=
EXTT3=
EXTT4=
EXTT5=
EXTT6=
EXTT7=
EXTT8=
EXTT9=
PLAYORDER=
